<svg width="80" height="85" viewBox="0 0 80 85" fill="none" xmlns="http://www.w3.org/2000/svg">
<path d="M28.95 44.3C28.95 30.95 25.35 21.875 21.9 21.875C18 21.875 14.775 31.925 14.775 44.3C14.775 56.675 18 66.725 21.9 66.725C25.35 66.725 28.95 57.725 28.95 44.3ZM40.425 44.3C40.425 57.35 32.1 68 21.9 68C11.55 68 3.075 57.35 3.075 44.3C3.075 31.25 11.55 20.675 21.9 20.675C32.1 20.675 40.425 31.25 40.425 44.3ZM58.6717 39.725C53.9467 40.925 58.8967 67.625 64.5967 66.575C69.2467 65.75 64.2967 38.3 58.6717 39.725ZM69.6217 22.175C61.5217 23.975 57.9217 36.05 57.3967 38.75C61.4467 36.5 75.0967 37.475 76.3717 51.575C77.2717 61.475 69.7717 68 61.8967 68C51.3217 68 45.9217 59.6 45.9217 49.925C45.9217 36.725 56.0467 23.525 69.1717 20.675L69.6217 22.175Z" fill="#B8B8B8"/>
</svg>
