<svg width="39" height="39" viewBox="0 0 39 39" fill="none" xmlns="http://www.w3.org/2000/svg">
<g clip-path="url(#clip0_627_17618)">
<path d="M17.8712 3.62891H14.6876C6.72853 3.62891 3.54492 6.81252 3.54492 14.7715V24.3224C3.54492 32.2814 6.72853 35.465 14.6876 35.465H24.2384C32.1974 35.465 35.381 32.2814 35.381 24.3224V21.1388" stroke="white" strokeWidth="2.38771" strokeLinecap="round" strokeLinejoin="round"/>
<path d="M35.2376 6.11247C33.2797 10.9993 28.361 17.6531 24.2542 20.9481L21.7391 22.9538C21.4207 23.1926 21.1024 23.3836 20.7363 23.5268C20.7363 23.2881 20.7203 23.0493 20.6885 22.7946C20.5452 21.7281 20.0677 20.7253 19.2081 19.8816C18.3326 19.0061 17.282 18.5126 16.1996 18.3694C15.9449 18.3535 15.6902 18.3375 15.4355 18.3535C15.5788 17.9555 15.7857 17.5894 16.0564 17.287L18.062 14.7719C21.3571 10.665 28.0267 5.71452 32.8977 3.7566C33.6458 3.47008 34.378 3.69293 34.8397 4.15455C35.3172 4.63209 35.5401 5.36433 35.2376 6.11247Z" stroke="white" strokeWidth="2.38771" strokeLinecap="round" strokeLinejoin="round"/>
<path d="M20.7517 23.512C20.7517 24.9128 20.2105 26.2499 19.2077 27.2687C18.4277 28.0486 17.3771 28.5899 16.1196 28.749L12.9837 29.0833C11.2805 29.2743 9.81603 27.8258 10.007 26.0907L10.3413 22.9549C10.6438 20.1692 12.9678 18.3864 15.451 18.3386C15.7057 18.3227 15.9604 18.3386 16.2151 18.3545C17.2975 18.4978 18.3481 18.9913 19.2236 19.8668C20.0832 20.7263 20.5607 21.7133 20.704 22.7798C20.7358 23.0345 20.7517 23.2891 20.7517 23.512Z" stroke="white" strokeWidth="2.38771" strokeLinecap="round" strokeLinejoin="round"/>
<path d="M25.5915 19.5173C25.5915 16.1904 22.9014 13.4844 19.5586 13.4844" stroke="white" strokeWidth="2.38771" strokeLinecap="round" strokeLinejoin="round"/>
</g>
<defs>
<clipPath id="clip0_627_17618">
<rect width="38.2033" height="38.2033" fill="white" transform="translate(0.408203 0.445312)"/>
</clipPath>
</defs>
</svg>
